<svg xmlns="http://www.w3.org/2000/svg" viewBox="0 0 103.916 100.073"><defs><style>.a{fill:#026fc2}</style></defs><g transform="translate(27.151)"><rect class="a" width="14.286" height="14.286" rx="7.143" transform="translate(35.714 17.857)"/><rect class="a" width="14.286" height="14.286" rx="7.143" transform="translate(0 17.857)"/><rect class="a" width="14.286" height="14.286" rx="7.143" transform="translate(17.857 35.714)"/><rect class="a" width="14.286" height="14.286" rx="7.143" transform="translate(17.857)"/></g><path class="a" d="M4.394 93.833H0V72.505h4.394zm7.69-15.85l.132 1.831a5.534 5.534 0 0 1 4.556-2.124 4.6 4.6 0 0 1 3.75 1.479 6.9 6.9 0 0 1 1.26 4.424v10.24h-4.234V83.696a2.746 2.746 0 0 0-.586-1.956 2.623 2.623 0 0 0-1.945-.607 2.912 2.912 0 0 0-2.681 1.523v11.177H8.1v-15.85zm12.29 7.808a9.289 9.289 0 0 1 1.736-5.874 5.624 5.624 0 0 1 4.68-2.227 4.933 4.933 0 0 1 4.058 1.787l.176-1.494h3.838v15.323a6.774 6.774 0 0 1-.945 3.618 6.068 6.068 0 0 1-2.659 2.344 9.346 9.346 0 0 1-4.014.806 8.691 8.691 0 0 1-3.4-.7 6.032 6.032 0 0 1-2.5-1.794l1.873-2.575a4.959 4.959 0 0 0 3.838 1.772 3.63 3.63 0 0 0 2.622-.9 3.379 3.379 0 0 0 .938-2.556v-.85a4.9 4.9 0 0 1-3.853 1.655 5.61 5.61 0 0 1-4.622-2.234 9.286 9.286 0 0 1-1.765-5.925zm4.233.315a5.784 5.784 0 0 0 .864 3.382 2.749 2.749 0 0 0 2.373 1.225 2.94 2.94 0 0 0 2.773-1.453v-6.675a2.933 2.933 0 0 0-2.742-1.452 2.767 2.767 0 0 0-2.4 1.247 6.519 6.519 0 0 0-.867 3.726zm30.527.622a7.547 7.547 0 0 1-2.542 5.42 8.926 8.926 0 0 1-6.042 1.978 8.026 8.026 0 0 1-6.453-2.761 11.322 11.322 0 0 1-2.351-7.581v-1.3a12.785 12.785 0 0 1 1.084-5.42 8.123 8.123 0 0 1 3.1-3.6 8.679 8.679 0 0 1 4.68-1.252 8.7 8.7 0 0 1 5.947 1.977 8.111 8.111 0 0 1 2.607 5.552H54.77a4.454 4.454 0 0 0-1.15-3 4.258 4.258 0 0 0-3.01-.93 3.734 3.734 0 0 0-3.293 1.579 8.825 8.825 0 0 0-1.121 4.885v1.611a9.445 9.445 0 0 0 1.047 5.054 3.665 3.665 0 0 0 3.3 1.6 4.338 4.338 0 0 0 3.04-.93 4.2 4.2 0 0 0 1.15-2.878zm1.948-.967a9.4 9.4 0 0 1 .908-4.2 6.649 6.649 0 0 1 2.615-2.856 7.628 7.628 0 0 1 3.962-1.011 7.217 7.217 0 0 1 5.237 1.963 7.878 7.878 0 0 1 2.263 5.332l.029 1.084a8.284 8.284 0 0 1-2.036 5.852 7.892 7.892 0 0 1-10.933.008 8.43 8.43 0 0 1-2.043-5.977zm4.233.3a5.925 5.925 0 0 0 .85 3.455 3.052 3.052 0 0 0 4.834.015 6.483 6.483 0 0 0 .864-3.778 5.865 5.865 0 0 0-.864-3.433 2.809 2.809 0 0 0-2.432-1.218 2.764 2.764 0 0 0-2.4 1.21 6.592 6.592 0 0 0-.85 3.75zm22.297-4.108a11.5 11.5 0 0 0-1.524-.12q-2.4 0-3.149 1.626v10.374h-4.233v-15.85h4l.111 1.89a3.923 3.923 0 0 1 3.53-2.183 4.436 4.436 0 0 1 1.318.19zm16.3 4.1a9.506 9.506 0 0 1-1.663 5.867 5.331 5.331 0 0 1-4.49 2.2 4.938 4.938 0 0 1-3.882-1.67v7.471h-4.229V77.983h3.926l.143 1.55a4.976 4.976 0 0 1 4.014-1.846 5.367 5.367 0 0 1 4.556 2.168 9.763 9.763 0 0 1 1.63 5.978zm-4.233-.308a6.238 6.238 0 0 0-.784-3.413 2.553 2.553 0 0 0-2.278-1.199 2.772 2.772 0 0 0-2.739 1.523v6.489a2.819 2.819 0 0 0 2.769 1.567q3.035.001 3.035-4.965z"/></svg>